<svg width="441" height="387" viewBox="0 0 441 387" xmlns="http://www.w3.org/2000/svg" xmlns:xlink="http://www.w3.org/1999/xlink">
  <defs>
    <path id="a" d="M.65.152h31.656V16H.65z"/>
  </defs>
  <g fill="none" fill-rule="evenodd">
    <path d="M28.413 184.501C48.714 86.036 265.018-41.22 372.013 55.49c50.198 45.373-10.091 110.802-42.435 200.088-31.237 86.226-146.138 81.27-201.14 70.781-79.724-13.738-115.144-68.526-100.025-141.858z" fill="#F5F5F6"/>
    <circle fill="#DADCE8" cx="347" cy="272" r="46"/>
    <path d="M350.83 293h-50.66c-2.843 0-5.17-2.353-5.17-5.228v-.544c0-2.875 2.327-5.228 5.17-5.228h50.66c2.843 0 5.17 2.353 5.17 5.228v.544c0 2.875-2.327 5.228-5.17 5.228" fill="#A7B1D4"/>
    <path d="M351.456 287h-50.912c-8 0-14.544-6.719-14.544-14.931v-.139c0-8.211 6.545-14.93 14.544-14.93h50.912c8 0 14.544 6.719 14.544 14.93v.139c0 8.212-6.545 14.931-14.544 14.931" fill="#FC4746"/>
    <path d="M287.323 368s6.003 3.794 5.663 7.156c-.34 3.36-9.274 2.315-9.952 3.823-1.286 2.856-10.337 4.004-14.501 4.836-4.166.833-9.744-1.29-4.224-3.573 5.52-2.281 15.398-9.857 15.999-10.626.6-.77 7.015-1.616 7.015-1.616" fill="#010002"/>
    <g transform="translate(278 371)">
      <mask id="b" fill="#fff">
        <use xlink:href="#a"/>
      </mask>
      <path d="M26.51.152s6.129 3.758 5.782 7.087c-.348 3.329-9.47 2.294-10.163 3.788-1.312 2.828-10.556 3.966-14.809 4.79-4.252.826-9.948-1.279-4.311-3.539 5.637-2.26 15.723-9.763 16.336-10.526.613-.762 7.164-1.6 7.164-1.6" fill="#010002" mask="url(#b)"/>
    </g>
    <path d="M275.975 109.246s-7.23-2.431-10.034 7.991c-2.806 10.423-7.317 30.497-8.358 45.301-1.04 14.804 5.205 20.71-19.433 32.523C213.51 206.873 209 210 209 210h61.461s11.76-3.822 16.619-36.48c4.858-32.658-11.105-64.274-11.105-64.274" fill="#1EBE6F"/>
    <path d="M288.307 367.82s-7.961 3.784-10.384 3.096c-2.422-.688-17.307-37.85-28.73-61.247-11.423-23.398-18.359-48.152-11.423-58.495 4.846-7.226 37.817-19.737 58.845-23.83 29.033-5.651 28.384 8.345 28.384 8.345s-55.33 31.43-55.33 46.227c0 14.795 18.638 85.903 18.638 85.903" fill="#2B0191"/>
    <path d="M334 82.204s-9.564-5.365-14.98-16.21c-5.416-10.844-3.112-41.893-3.112-41.893L300.698 12l-24.43 8.79L275 26.382s3.572 4.567 4.378 17.466c.808 12.9.231 20.32.231 20.32s9.664 16.438 12.841 16.438c3.177 0 .987 7.99.987 7.99s-.993 6.85 4.228 7.992c5.221 1.141 19.165.113 27.692-5.708 8.528-5.822 8.643-8.677 8.643-8.677" fill="#F0BDAC"/>
    <path d="M305.954 371.156s-6.416-61.02-6.416-79.048c0-18.03-1.376-26.812 6.416-27.737 7.79-.924 27.039-1.849 32.54-4.622 5.499-2.775 11.456-12.02 6.873-28.662-4.583-16.641-73.164 5.236-77.452 13.407-8.25 15.717 12.831 80.435 12.831 80.435s11.458 47.615 14.667 48.54c3.207.924 7.79.924 10.54-2.313" fill="#5802E3"/>
    <path d="M338.399 83s33.639 22.8 37.415 32.983c2.676 7.22-24.371 64.23-24.371 64.23s-3.605 29.165-3.862 37.498c-.258 8.333 2.489 11.458-1.63 13.888-4.12 2.43-34.89-7.117-49.087-3.56-14.196 3.556-10.297 4.602-16.476.088-6.178-4.513 1.03-5.208 3.776-12.152 2.746-6.944 2.06-20.484.344-32.636-1.716-12.152-6.179-25.345-12.358-39.58-6.178-14.235-8.38-26.852-3.432-33.678 1.754-2.42 23.342-19.79 23.342-19.79 4.84 5.735 9.153 8.305 12.94 7.709 6.51-1.024 17.643-6.024 33.399-15z" fill="#1DD27E"/>
    <path d="M294.35 86.37s-5.217.957-5.347 4.482c-.13 3.525 3.746 12.056 12.63 12.147 10.47.105 24.947-6.718 32.073-11.09 7.127-4.374 7.645-5.634 4.32-9.33-3.323-3.698-4.32-3.17-10.136 0-5.816 3.168-20.274 11.442-26.423 11.442-6.15 0-7.118-7.651-7.118-7.651" fill="#1EBE6F"/>
    <path d="M279.627 53.285s-5.942 21.546 2.779 28.027c3.631 2.699 15.11 5.418 28.308-2.846 13.199-8.262 14.762-8.775 12.33-16.295-2.431-7.519-6.077-14.355-4.167-22.216 1.91-7.861 7.989-24.267-1.737-34.18-9.726-9.911-25.704-5.126-32.65 0-6.947 5.128-11.983 10.083-14.067 8.717-2.084-1.367-11.637 1.88-2.606 10.424 9.031 8.545 15.978 1.88 22.404-.854s14.588-6.836 18.756-.855c4.169 5.981 4.169 11.834 2.779 18.478-1.39 6.644-5.267 7.27-14.24 10.916-7.99 3.247-12.852 2.905-17.889.684" fill="#000"/>
    <path d="M284.46 36.419v-.006c-.929-2.335-2.91-3.734-5.033-3.35-2.699.487-4.64 3.68-4.408 7.147.231 3.472 2.557 6.055 5.268 5.768 2.799-.294 4.935-3.51 4.695-7.182l-.001-.01a7.916 7.916 0 0 0-.521-2.367M296.337 30.087c-2.493.473-4.453 2.782-5.096 5.62 0 .007-.004.008-.004.013a9.302 9.302 0 0 0-.217 2.687c.257 3.983 3.016 6.922 6.263 6.563 3.37-.372 5.967-4.12 5.698-8.37-.27-4.243-3.29-7.149-6.644-6.513" fill="#000"/>
    <path d="M291.993 37.202c-.004.023-.007.04-.006.063l.012.723.001.01-1.032.131-.001-.011c-.142-1.817-1.599-3.097-3.236-2.862-1.612.23-2.8 1.85-2.668 3.622L284.1 39a6.068 6.068 0 0 0-.099-.727 4.807 4.807 0 0 1 .474-1.777c.618-1.286 1.77-2.247 3.166-2.455 1.414-.21 2.745.408 3.576 1.524.007.005.007.011.012.016.348.46.614 1.013.765 1.62" fill="#000"/>
    <path d="M290 60.89s.6 7.377 6.42 5.92C302.244 65.35 303 56 303 56s-7.093 5.061-13 4.89" fill="#FFF"/>
    <path d="M221.949 214h-63.503c-3.02 0-6.256-2.478-7.188-5.508l-16.003-51.983c-.933-3.03.776-5.509 3.796-5.509h63.504c3.02 0 6.255 2.478 7.187 5.509l16.003 51.983c.933 3.03-.776 5.508-3.796 5.508" fill="#D1D3DB"/>
    <path d="M375.527 115.773c2.064 3.129 8.94 36.508 0 63.629C366.587 206.522 361.43 210 361.43 210h-89.75s-3.781-6.954 0-10.084c3.783-3.129 56.239-6.987 62.727-16.798 3.327-5.03 4.327-23.535 5.015-38.138.687-14.604 8.252-27.468 20.975-29.207 12.723-1.74 15.13 0 15.13 0" fill="#1EBE6F"/>
    <path d="M271.788 202.89s-6.844-3.758-11.646-.677c-4.56 2.926-12.277 4.55-12.624 5.229-2.263 4.443 3.617 3.467 3.617 3.467H275l-3.212-8.018z" fill="#F0BDAC"/>
    <path d="M387.813 218H136.378c-.758 0-1.378-.654-1.378-1.455v-5.091c0-.8.62-1.454 1.378-1.454h251.435c.758 0 1.379.654 1.379 1.454v5.09c0 .802-.621 1.456-1.379 1.456" fill="#2F2F2F"/>
    <path d="M174.986 180.162l.014 3.147-7.5.691-7.5-.69v-2.674a1.64 1.64 0 0 1 1.646-1.636h12.17c.647 0 1.17.52 1.17 1.162" fill="#2C1B29"/>
    <path d="M185.213 183h-35.425a2.794 2.794 0 0 0-2.788 2.8v22.4c0 1.547 1.248 2.8 2.788 2.8h35.425a2.793 2.793 0 0 0 2.787-2.8V185.8c0-1.547-1.248-2.8-2.787-2.8" fill="#F8C71C"/>
    <path d="M185.242 183h-8.55l-4.188 7.025-8.936 14.989L160 211h25.242c1.523 0 2.758-1.253 2.758-2.8v-22.4c0-1.547-1.235-2.8-2.758-2.8" fill="#FFDA58"/>
    <path d="M181.5 188a1.5 1.5 0 1 1 0 3 1.5 1.5 0 0 1 0-3" fill="#2C1B29"/>
    <path d="M168 187a9 9 0 0 0-9 9c0 4.971 4.028 9 9 9a9 9 0 0 0 0-18" fill="#EBEBEB"/>
    <path d="M168 192a4 4 0 1 1 0 8 4 4 0 0 1 0-8" fill="#2C1B29"/>
    <path d="M158.955 191h-5.91c-.577 0-1.045-.393-1.045-.878v-2.244c0-.485.468-.878 1.046-.878h5.91c.576 0 1.044.393 1.044.878v2.244c0 .485-.468.878-1.045.878" fill="#EBEBEB"/>
    <rect stroke="#2B0191" stroke-width="2" stroke-linecap="round" stroke-linejoin="round" transform="rotate(15 432.205 301.205)" x="425.506" y="294.506" width="13.399" height="13.399" rx="2"/>
    <g transform="translate(0 261)">
      <rect stroke="#DADCE8" x="20.5" y="21.5" width="42" height="16" rx="2"/>
      <rect stroke="#DADCE8" x="93.5" y="43.5" width="42" height="16" rx="2"/>
      <rect fill="#DADCE8" y="43" width="43" height="17" rx="2"/>
      <rect fill="#DADCE8" x="47" y="43" width="43" height="17" rx="2"/>
      <rect stroke="#DADCE8" x="66.5" y="21.5" width="42" height="16" rx="2"/>
      <rect fill="#DADCE8" x="43" width="43" height="17" rx="2"/>
    </g>
    <g fill-rule="nonzero">
      <path fill="#949FCD" d="M88.794 30.552l-.022.74 5.33 19.89.258.146 7.922-7.972z"/>
      <path fill="#AAB3D6" d="M88.589 30.607l-5.484 17.888 11.05 2.887-2.586-9.653z"/>
      <path fill="#949FCD" d="M94.638 52.716l-.08.167 1.865 6.963.204.295 6.046-15.323z"/>
      <path fill="#AAB3D6" d="M96.51 60.172l-1.989-7.425-11.025-2.79z"/>
      <path fill="#6977AA" d="M94.155 51.382l8.137-7.99-10.706-1.598z"/>
      <path fill="#8491C1" d="M83.114 48.531l11.041 2.851-2.569-9.588z"/>
    </g>
    <g fill-rule="nonzero">
      <path fill="#949FCD" d="M168.622 90.115l-.319.53-4.46 16.644.12.212 8.786-2.54z"/>
      <path fill="#AAB3D6" d="M168.457 90.07l-11.163 10.75 6.504 6.637 2.165-8.079z"/>
      <path fill="#949FCD" d="M163.475 109.04l-.125.087-1.55 5.787.021.296 10.48-8.58z"/>
      <path fill="#AAB3D6" d="M161.727 115.185l1.654-6.17-6.534-6.526z"/>
      <path fill="#6977AA" d="M164.057 106.491l8.898-2.297-6.828-5.43z"/>
      <path fill="#8491C1" d="M157.5 100.052l6.557 6.44 2.07-7.728z"/>
    </g>
    <g fill-rule="nonzero">
      <path fill="#949FCD" d="M63.75 110.967l.34.394 12.178 7.907.201-.04.252-7.702z"/>
      <path fill="#AAB3D6" d="M63.671 111.088l5.708 11.744 7.012-3.484-5.91-3.838z"/>
      <path fill="#949FCD" d="M77.575 120.02l.038.122 4.233 2.749.243.06-4.147-10.632z"/>
      <path fill="#AAB3D6" d="M82.044 123.02l-4.514-2.932-6.93 3.537z"/>
      <path fill="#6977AA" d="M75.684 118.89l.476-7.729-6.129 4.057z"/>
      <path fill="#8491C1" d="M68.817 122.467l6.867-3.577-5.653-3.672z"/>
    </g>
  </g>
</svg>
