<?xml version="1.0" encoding="UTF-8"?>
<svg width="441px" height="387px" viewBox="0 0 441 387" version="1.1" xmlns="http://www.w3.org/2000/svg" xmlns:xlink="http://www.w3.org/1999/xlink">
    <!-- Generator: Sketch 51.3 (57544) - http://www.bohemiancoding.com/sketch -->
    <title>hero_illustration</title>
    <desc>Created with Sketch.</desc>
    <defs>
        <polygon id="path-1" points="0.650625064 0.15192381 32.3057942 0.15192381 32.3057942 16 0.650625064 16"></polygon>
    </defs>
    <g id="Page-1" stroke="none" stroke-width="1" fill="none" fill-rule="evenodd">
        <g id="Viewly---Homepage-3" transform="translate(-749.000000, -119.000000)">
            <g id="hero_illustration" transform="translate(749.000000, 119.000000)">
                <path d="M28.4134222,184.501331 C48.714243,86.035933 265.017593,-41.2211435 372.01257,55.4899387 C422.211266,100.862831 361.922024,166.291736 329.577514,255.577671 C298.340757,341.804479 183.439506,336.848485 128.437077,326.359008 C48.714243,312.620613 13.2942613,257.832981 28.4134222,184.501331 Z" id="Fill-1" fill="#F5F5F6"></path>
                <circle id="Oval-2" fill="#DADCE8" cx="347" cy="272" r="46"></circle>
                <path d="M350.829425,293 L300.170575,293 C297.326636,293 295,290.647476 295,287.771891 L295,287.228109 C295,284.352524 297.326636,282 300.170575,282 L350.829425,282 C353.673364,282 356,284.352524 356,287.228109 L356,287.771891 C356,290.647476 353.673364,293 350.829425,293" id="Fill-3" fill="#A7B1D4"></path>
                <path d="M351.456108,287 L300.543892,287 C292.544792,287 286,280.280961 286,272.068896 L286,271.930264 C286,263.719039 292.544792,257 300.543892,257 L351.456108,257 C359.455208,257 366,263.719039 366,271.930264 L366,272.068896 C366,280.280961 359.455208,287 351.456108,287" id="Fill-5" fill="#FC4746"></path>
                <path d="M287.323236,368 C287.323236,368 293.326117,371.794116 292.986081,375.15552 C292.646045,378.515346 283.712218,377.470681 283.033805,378.978852 C281.748303,381.834901 272.696708,382.983006 268.53251,383.815264 C264.367482,384.648311 258.789232,382.524238 264.309427,380.242241 C269.829623,377.961034 279.707257,370.385437 280.307711,369.615559 C280.908165,368.845681 287.323236,368 287.323236,368" id="Fill-7" fill="#010002"></path>
                <g id="Group-11" transform="translate(278.000000, 371.000000)">
                    <mask id="mask-2" fill="white">
                        <use xlink:href="#path-1"></use>
                    </mask>
                    <g id="Clip-10"></g>
                    <path d="M26.5091475,0.15192381 C26.5091475,0.15192381 32.6388975,3.9104 32.2915725,7.2391619 C31.9442475,10.5679238 22.8222225,9.53325714 22.1292225,11.0265905 C20.8166475,13.854781 11.5733475,14.9930667 7.3204725,15.8174476 C3.0684225,16.6425905 -2.6282025,14.5382095 3.0090225,12.2784 C8.6462475,10.0185905 18.7318725,2.51459048 19.3448475,1.75192381 C19.9578225,0.990019048 26.5091475,0.15192381 26.5091475,0.15192381" id="Fill-9" fill="#010002" mask="url(#mask-2)"></path>
                </g>
                <path d="M275.975403,109.246118 C275.975403,109.246118 268.745358,106.814547 265.940741,117.23722 C263.135298,127.659893 258.623954,147.733587 257.583066,162.53805 C256.542177,177.341685 262.788335,183.248584 238.149839,195.060725 C213.511344,206.872867 209,210 209,210 L270.461172,210 C270.461172,210 282.221561,206.178133 287.079868,173.520645 C291.938175,140.862331 275.975403,109.246118 275.975403,109.246118" id="Fill-12" fill="#1EBE6F"></path>
                <path d="M288.307338,367.819318 C288.307338,367.819318 280.345763,371.604456 277.923177,370.916398 C275.500591,370.22834 260.615693,333.066657 249.19328,309.668591 C237.770044,286.270524 230.83436,261.51682 237.770044,251.173835 C242.61604,243.947588 275.587112,231.43722 296.614997,227.344094 C325.648129,221.693008 324.99881,235.689254 324.99881,235.689254 C324.99881,235.689254 269.668255,267.119578 269.668255,281.916101 C269.668255,296.710985 288.307338,367.819318 288.307338,367.819318" id="Fill-14" fill="#2B0191"></path>
                <path d="M334,82.2044002 C334,82.2044002 324.435502,76.8392429 319.01957,65.9947933 C313.603638,55.1495284 315.90794,24.1007491 315.90794,24.1007491 L300.697079,12 L276.267366,20.7892055 L275,26.3826326 C275,26.3826326 278.571668,30.9496607 279.378173,43.8485391 C280.185502,56.7482328 279.609426,64.1686343 279.609426,64.1686343 C279.609426,64.1686343 289.27268,80.6065111 292.450148,80.6065111 C295.626792,80.6065111 293.436883,88.5975872 293.436883,88.5975872 C293.436883,88.5975872 292.443564,95.4464987 297.665276,96.5886633 C302.886166,97.7300127 316.82966,96.701983 325.357223,90.8811012 C333.884785,85.0585889 334,82.2044002 334,82.2044002" id="Fill-16" fill="#F0BDAC"></path>
                <path d="M305.953555,371.156407 C305.953555,371.156407 299.537619,310.135934 299.537619,292.107852 C299.537619,274.078945 298.162133,265.295589 305.953555,264.371199 C313.744158,263.446809 332.992783,262.522419 338.493091,259.749248 C343.992581,256.974428 349.950294,247.729702 345.367249,231.087379 C340.784205,214.445883 272.203001,236.322563 267.914528,244.493511 C259.664884,260.210618 280.746399,324.929476 280.746399,324.929476 C280.746399,324.929476 292.20442,372.543817 295.412797,373.468207 C298.620356,374.392597 303.2034,374.392597 305.953555,371.156407" id="Fill-18" fill="#5802E3"></path>
                <path d="M338.398619,83 C338.398619,83 372.037751,105.79922 375.813747,115.98345 C378.489875,123.20217 351.442597,180.213858 351.442597,180.213858 C351.442597,180.213858 347.8382,209.378016 347.580802,217.710868 C347.323403,226.043721 350.069805,229.168747 345.950611,231.59868 C341.831417,234.028613 311.061257,224.482447 296.864296,228.038084 C282.668152,231.595374 286.566719,232.640907 280.388336,228.127347 C274.209954,223.613788 281.417931,222.918694 284.164332,215.975202 C286.909917,209.030882 286.223521,195.49103 284.50753,183.338885 C282.79154,171.186739 278.329148,157.99402 272.149948,143.759075 C265.971565,129.524129 263.769378,116.90666 268.717967,110.081358 C270.472363,107.661342 292.059523,90.2914526 292.059523,90.2914526 C296.89934,96.0263946 301.212833,98.5959104 305,98 C311.51041,96.9755876 322.643282,91.9755876 338.398619,83 Z" id="Fill-20" fill="#1DD27E"></path>
                <path d="M294.349406,86.3698631 C294.349406,86.3698631 289.13258,87.3269838 289.00317,90.8520713 C288.872952,94.3771588 292.74877,102.908273 301.632742,102.998789 C312.10279,103.10439 326.580493,96.281343 333.706111,91.908089 C340.832538,87.5348349 341.350985,86.2751567 338.026775,82.5790949 C334.703374,78.8813569 333.706111,79.4093657 327.889957,82.5790949 C322.073803,85.7471479 307.615511,94.0209624 301.466936,94.0209624 C295.317552,94.0209624 294.349406,86.3698631 294.349406,86.3698631" id="Fill-22" fill="#1EBE6F"></path>
                <path d="M279.627278,53.2847087 C279.627278,53.2847087 273.685475,74.8309528 282.405522,81.3116685 C286.037083,84.0105429 297.515529,86.7297584 310.71384,78.4663373 C323.912977,70.2037299 325.475739,69.6911309 323.044776,62.1713851 C320.612986,54.652453 316.966541,47.8161726 318.876584,39.9546941 C320.786626,32.0940294 326.865688,15.6876072 317.140182,5.77573287 C307.413848,-4.13614149 291.436467,0.648929358 284.490031,5.77573287 C277.542769,10.9025364 272.507202,15.8584736 270.422693,14.4915429 C268.33901,13.1246123 258.786317,16.3718862 267.817262,24.9160163 C276.848208,33.46096 283.79547,26.7955459 290.220986,24.0616846 C296.646501,21.3278234 304.809245,17.2262178 308.977437,23.207353 C313.14563,29.1884881 313.14563,35.0410667 311.755681,41.685326 C310.366559,48.3287715 306.488594,48.9544678 297.515529,52.6012434 C289.526425,55.8477037 284.663672,55.505971 279.627278,53.2847087" id="Fill-24" fill="#000000"></path>
                <path d="M284.459995,36.4187455 L284.459995,36.4133581 C283.53126,34.0775308 281.550751,32.6791129 279.426566,33.0631583 C276.728471,33.5503342 274.787652,36.7435294 275.018645,40.2099434 C275.250432,43.6817447 277.576239,46.2646233 280.287036,45.9783209 C283.085943,45.6835526 285.222035,42.468038 284.981516,38.7961329 L284.980722,38.7853581 C284.923569,37.9310687 284.740997,37.1337319 284.459995,36.4187455" id="Fill-26" fill="#000000"></path>
                <path d="M296.336502,30.0873234 C293.843611,30.560278 291.883601,32.8690754 291.240635,35.7076144 C291.241432,35.7141043 291.236646,35.7149155 291.236646,35.719783 C291.041204,36.5707768 290.959836,37.472879 291.018867,38.3944509 C291.018867,38.4001296 291.018867,38.4001296 291.019665,38.4066196 C291.27733,42.3898224 294.035863,45.3289555 297.282604,44.9703861 C300.653789,44.5980256 303.250384,40.849272 302.980753,36.5999816 C302.711122,32.3571811 299.690935,29.4513089 296.336502,30.0873234" id="Fill-28" fill="#000000"></path>
                <path d="M291.992827,37.2018107 C291.98924,37.2249237 291.985653,37.2426436 291.987447,37.2649861 L291.999103,37.9876518 C292,37.9930448 292,37.9930448 292,37.9984378 L290.967944,38.1294113 C290.967048,38.1240183 290.967048,38.1240183 290.967048,38.1178549 C290.825375,36.3011752 289.368303,35.0214869 287.731002,35.2556983 C286.118807,35.4852872 284.930733,37.1062771 285.063439,38.8775012 L284.098633,39 C284.079803,38.7519208 284.046626,38.5053824 284,38.2727118 C284.044833,37.6401867 284.208025,37.0407903 284.474333,36.4960946 C285.092132,35.2102428 286.24434,34.2487431 287.639543,34.0407264 C289.054472,33.8303983 290.385115,34.4490556 291.216319,35.5654122 C291.222596,35.5700348 291.222596,35.5761982 291.227976,35.5808208 C291.57588,36.0415394 291.842188,36.5939395 291.992827,37.2018107" id="Fill-30" fill="#000000"></path>
                <path d="M290,60.8899455 C290,60.8899455 290.59921,68.2673424 296.420921,66.8091812 C302.243447,65.3510201 303,56 303,56 C303,56 295.907312,61.0614939 290,60.8899455" id="Fill-32" fill="#FFFFFF"></path>
                <path d="M221.948834,214 L158.446089,214 C155.425106,214 152.190031,211.521731 151.257669,208.491915 L135.254713,156.508904 C134.322351,153.478269 136.031,151 139.051166,151 L202.554728,151 C205.574894,151 208.809969,153.478269 209.742331,156.508904 L225.745287,208.491915 C226.677649,211.521731 224.969,214 221.948834,214" id="Fill-34" fill="#D1D3DB"></path>
                <path d="M375.526915,115.772902 C377.590544,118.901665 384.467395,152.280936 375.526915,179.401852 C366.586435,206.522768 361.430229,210 361.430229,210 L271.680808,210 C271.680808,210 267.89899,203.045537 271.680808,199.915946 C275.463445,196.787182 327.918572,192.929202 334.406601,183.118294 C337.734109,178.087441 338.73359,159.58304 339.422012,144.97966 C340.108796,130.376281 347.67407,117.511932 360.397187,115.772902 C373.120304,114.033872 375.526915,115.772902 375.526915,115.772902" id="Fill-36" fill="#1EBE6F"></path>
                <path d="M271.787982,202.890565 C271.787982,202.890565 264.944417,199.132438 260.141958,202.21339 C255.58122,205.138785 247.865001,206.762456 247.518399,207.441953 C245.255237,211.884993 251.135197,210.909088 251.135197,210.909088 L275,210.909088 L271.787982,202.890565 Z" id="Fill-38" fill="#F0BDAC"></path>
                <path d="M387.813232,218 L136.378312,218 C135.619871,218 135,217.345525 135,216.544746 L135,211.453522 C135,210.654475 135.619871,210 136.378312,210 L387.813232,210 C388.570852,210 389.191543,210.654475 389.191543,211.453522 L389.191543,216.544746 C389.191543,217.345525 388.570852,218 387.813232,218" id="Fill-40" fill="#2F2F2F"></path>
                <g id="camera" transform="translate(147.000000, 179.000000)">
                    <path d="M27.9860796,1.16241549 L28,4.30931162 L20.5,5 L13,4.30931162 L13,1.63567916 C13,0.732175784 13.7370076,0 14.6464735,0 L26.815993,0 C27.462518,0 27.9860796,0.520897357 27.9860796,1.16241549" id="Fill-43" fill="#2C1B29"></path>
                    <path d="M38.21282,4 L37.50844,4 L28.53272,4 L12.4681,4 L6.44028,4 L2.788,4 C1.24804,4 0,5.25341176 0,6.79917647 L0,29.2008235 C0,30.7465882 1.24804,32 2.788,32 L38.21282,32 C39.75196,32 41,30.7465882 41,29.2008235 L41,24.6071765 L41,15.1645882 L41,8.14976471 L41,6.79917647 C41,5.25341176 39.75196,4 38.21282,4" id="Fill-45" fill="#F8C71C"></path>
                    <path d="M38.2417111,4 L29.6925574,4 L25.5044053,11.0247059 L16.568166,26.0137647 L13,32 L38.2417111,32 C39.7648968,32 41,30.7465882 41,29.2008235 L41,6.79917647 C41,5.25341176 39.7648968,4 38.2417111,4" id="Fill-47" fill="#FFDA58"></path>
                    <path d="M34.5,9 C35.328169,9 36,9.67096926 36,10.499648 C36,11.3283267 35.328169,12 34.5,12 C33.6711268,12 33,11.3283267 33,10.499648 C33,9.67096926 33.6711268,9 34.5,9" id="Fill-49" fill="#2C1B29"></path>
                    <path d="M21,8 C16.0278952,8 12,12.0310871 12,16.9995774 C12,21.9714487 16.0278952,26 21,26 C25.9695689,26 30,21.9714487 30,16.9995774 C30,12.0310871 25.9695689,8 21,8" id="Fill-51" fill="#EBEBEB"></path>
                    <path d="M21,13 C23.2082262,13 25,14.79006 25,17 C25,19.20994 23.2082262,21 21,21 C18.79006,21 17,19.20994 17,17 C17.0008569,14.79006 18.79006,13 21,13" id="Fill-53" fill="#2C1B29"></path>
                    <path d="M11.9552773,12 L6.04561717,12 C5.46779964,12 5,11.6070624 5,11.1224643 L5,8.878287 C5,8.39293764 5.46779964,8 6.04561717,8 L11.9552773,8 C12.5322004,8 13,8.39293764 13,8.878287 L13,11.1224643 C13,11.6070624 12.5322004,12 11.9552773,12" id="Fill-55" fill="#EBEBEB"></path>
                </g>
                <rect id="Rectangle-2-Copy-2" stroke="#2B0191" stroke-width="2" stroke-linecap="round" stroke-linejoin="round" transform="translate(432.205416, 301.205416) rotate(-345.000000) translate(-432.205416, -301.205416) " x="425.505722" y="294.505722" width="13.3993882" height="13.3993882" rx="2"></rect>
                <g id="bricks" transform="translate(0.000000, 261.000000)">
                    <rect id="Rectangle-4" stroke="#DADCE8" x="20.5" y="21.5" width="42" height="16" rx="2"></rect>
                    <rect id="Rectangle-4-Copy-5" stroke="#DADCE8" x="93.5" y="43.5" width="42" height="16" rx="2"></rect>
                    <rect id="Rectangle-4-Copy" fill="#DADCE8" x="0" y="43" width="43" height="17" rx="2"></rect>
                    <rect id="Rectangle-4-Copy-4" fill="#DADCE8" x="47" y="43" width="43" height="17" rx="2"></rect>
                    <rect id="Rectangle-4-Copy-3" stroke="#DADCE8" x="66.5" y="21.5" width="42" height="16" rx="2"></rect>
                    <rect id="Rectangle-4-Copy-2" fill="#DADCE8" x="43" y="0" width="43" height="17" rx="2"></rect>
                </g>
                <g id="ethereum-logo-copy" transform="translate(92.670953, 45.560041) rotate(-15.000000) translate(-92.670953, -45.560041) translate(82.670953, 30.060041)" fill-rule="nonzero">
                    <polygon id="Shape" fill="#949FCD" points="10.1390778 0 9.92688538 0.709577059 9.92688538 21.2998601 10.1390778 21.5082517 19.8537708 15.8586738"></polygon>
                    <polygon id="Shape" fill="#AAB3D6" points="9.92688538 0 0 15.8586187 9.92688538 21.5082517 9.92688538 11.514379"></polygon>
                    <polygon id="Shape" fill="#949FCD" points="10.0475125 22.92124 9.92688538 23.0621718 9.92688538 30.270174 10.0475125 30.6078966 19.8537708 17.3720494"></polygon>
                    <polygon id="Shape" fill="#AAB3D6" points="9.92688538 30.6078966 9.92688538 22.92124 0 17.3720494"></polygon>
                    <polygon id="Shape" fill="#6977AA" points="9.92688538 21.5082517 19.8537708 15.8965518 9.92688538 11.5813663"></polygon>
                    <polygon id="Shape" fill="#8491C1" points="0 15.8965518 9.92688538 21.5082517 9.92688538 11.5813663"></polygon>
                </g>
                <g id="ethereum-logo-copy-2" transform="translate(165.092054, 102.627588) rotate(-345.000000) translate(-165.092054, -102.627588) translate(157.092054, 89.627588)" fill-rule="nonzero">
                    <polygon id="Shape" fill="#949FCD" points="8.17100423 0 8 0.593836601 8 17.8255996 8.17100423 18 16 13.2719355"></polygon>
                    <polygon id="Shape" fill="#AAB3D6" points="8 0 0 13.2718894 8 18 8 9.63624683"></polygon>
                    <polygon id="Shape" fill="#949FCD" points="8.09721247 19.6118012 8 19.7289264 8 25.7193268 8.09721247 26 16 15"></polygon>
                    <polygon id="Shape" fill="#AAB3D6" points="8 26 8 19.6118012 0 15"></polygon>
                    <polygon id="Shape" fill="#6977AA" points="8 17 16 12.4775746 8 9"></polygon>
                    <polygon id="Shape" fill="#8491C1" points="0 12.4775746 8 17 8 9"></polygon>
                </g>
                <g id="ethereum-logo-copy-3" transform="translate(73.037849, 116.861723) rotate(-417.000000) translate(-73.037849, -116.861723) translate(66.037849, 105.861723)" fill-rule="nonzero">
                    <polygon id="Shape" fill="#949FCD" points="6.88475471 0 6.74066934 0.500357021 6.74066934 15.0195591 6.88475471 15.166506 13.4813387 11.1827161"></polygon>
                    <polygon id="Shape" fill="#AAB3D6" points="6.74066934 0 0 11.1826772 6.74066934 15.166506 6.74066934 8.11934419"></polygon>
                    <polygon id="Shape" fill="#949FCD" points="6.82257898 16.5245834 6.74066934 16.6232711 6.74066934 21.6706847 6.82257898 21.9071753 13.4813387 12.638755"></polygon>
                    <polygon id="Shape" fill="#AAB3D6" points="6.74066934 21.9071753 6.74066934 16.5245834 0 12.638755"></polygon>
                    <polygon id="Shape" fill="#6977AA" points="6.74066934 14.3239223 13.4813387 10.5134005 6.74066934 7.58325301"></polygon>
                    <polygon id="Shape" fill="#8491C1" points="0 10.5134005 6.74066934 14.3239223 6.74066934 7.58325301"></polygon>
                </g>
            </g>
        </g>
    </g>
</svg>