<svg width="337" height="235" xmlns="http://www.w3.org/2000/svg" xmlns:xlink="http://www.w3.org/1999/xlink"><defs><linearGradient x1="0%" y1="100.183%" x2="101.5%" y2="-2.049%" id="a"><stop stop-color="#A8ACBB" offset="0%"/><stop stop-color="#E6E8F2" offset="100%"/></linearGradient><rect id="b" width="44" height="44" rx="2"/><pattern id="c" width="258" height="258" x="-258" y="-258" patternUnits="userSpaceOnUse"><use xlink:href="#a"/></pattern><linearGradient x1="0%" y1="100.183%" x2="101.5%" y2="-2.049%" id="d"><stop stop-color="#BABDC8" offset="0%"/><stop stop-color="#E6E8F2" offset="100%"/></linearGradient><rect id="e" x="2" y="2" width="40" height="40" rx="1"/><pattern id="f" width="258" height="258" x="-256" y="-256" patternUnits="userSpaceOnUse"><use xlink:href="#b"/></pattern><linearGradient x1="50%" y1="4.394%" x2="50%" y2="100%" id="g"><stop stop-color="#F4F4F8" offset="0%"/><stop stop-color="#76798C" offset="100%"/></linearGradient><circle id="h" cx="22" cy="22" r="14"/><pattern id="i" width="258" height="258" x="-250" y="-250" patternUnits="userSpaceOnUse"><use xlink:href="#c"/></pattern><linearGradient x1="50%" y1="3.759%" x2="50%" y2="95.522%" id="j"><stop stop-color="#A9AABF" offset="0%"/><stop stop-color="#E7E7E7" offset="100%"/></linearGradient><circle id="k" cx="22" cy="22" r="12"/><pattern id="l" width="258" height="258" x="-248" y="-248" patternUnits="userSpaceOnUse"><use xlink:href="#d"/></pattern><circle id="m" cx="28" cy="22" r="3"/><pattern id="n" width="258" height="258" x="-233" y="-239" patternUnits="userSpaceOnUse"><use xlink:href="#e"/></pattern><circle id="o" cx="17" cy="22" r="3"/><pattern id="p" width="258" height="258" x="-244" y="-239" patternUnits="userSpaceOnUse"><use xlink:href="#f"/></pattern><rect id="q" x="96" y="77" width="6" height="9" rx="3"/><pattern id="r" width="258" height="258" x="-162" y="-181" patternUnits="userSpaceOnUse"><use xlink:href="#g"/></pattern><rect id="s" x="107" y="77" width="6" height="9" rx="3"/><pattern id="t" width="258" height="258" x="-151" y="-181" patternUnits="userSpaceOnUse"><use xlink:href="#h"/></pattern><path d="M104 48c7.732 0 14 6.268 14 14v12H90V62c0-7.732 6.268-14 14-14z" id="u"/><pattern id="v" width="258" height="258" x="-168" y="-210" patternUnits="userSpaceOnUse"><use xlink:href="#i"/></pattern><rect id="w" x="87" y="74" width="34" height="6" rx="3"/><pattern id="x" width="258" height="258" x="-171" y="-184" patternUnits="userSpaceOnUse"><use xlink:href="#j"/></pattern><linearGradient x1="0%" y1="100%" y2="0%" id="y"><stop stop-color="#1B2669" offset="0%"/><stop stop-color="#2C2F42" offset="100%"/></linearGradient><rect id="z" width="192" height="62" rx="6"/><pattern id="A" width="258" height="258" x="-258" y="-258" patternUnits="userSpaceOnUse"><use xlink:href="#k"/></pattern><linearGradient x1="0%" y1="100%" x2="96.146%" y2="3.854%" id="B"><stop stop-color="#23307A" offset="0%"/><stop stop-color="#333852" offset="100%"/></linearGradient><path d="M9 5h174a4 4 0 0 1 4 4v44a4 4 0 0 1-4 4H9a4 4 0 0 1-4-4V9a4 4 0 0 1 4-4z" id="C"/><pattern id="D" width="258" height="258" x="-253" y="-253" patternUnits="userSpaceOnUse"><use xlink:href="#l"/></pattern><linearGradient x1="50%" y1="0%" x2="50%" y2="100%" id="E"><stop stop-color="#DF4351" offset="0%"/><stop stop-color="#64000F" offset="100%"/></linearGradient><circle id="F" cx="163" cy="31" r="12"/><pattern id="G" width="258" height="258" x="-107" y="-239" patternUnits="userSpaceOnUse"><use xlink:href="#m"/></pattern><linearGradient x1="50%" y1="0%" x2="50%" y2="100%" id="H"><stop stop-color="#F5515F" offset="0%"/><stop stop-color="#9F041B" offset="100%"/></linearGradient><circle id="I" cx="163" cy="31" r="9"/><pattern id="J" width="258" height="258" x="-104" y="-236" patternUnits="userSpaceOnUse"><use xlink:href="#n"/></pattern><linearGradient x1="50%" y1="0%" x2="50%" y2="100%" id="K"><stop stop-color="#B4EC51" offset="0%"/><stop stop-color="#429321" offset="100%"/></linearGradient><circle id="L" cx="39" cy="20" r="5"/><pattern id="M" width="258" height="258" x="-224" y="-243" patternUnits="userSpaceOnUse"><use xlink:href="#o"/></pattern><linearGradient x1="3.023%" y1="96.977%" y2="0%" id="N"><stop stop-color="#0C0F40" offset="0%"/><stop stop-color="#212954" offset="100%"/></linearGradient><path d="M26 36h58a6 6 0 0 1 6 6v20H20V42a6 6 0 0 1 6-6z" id="O"/><pattern id="P" width="258" height="258" x="-238" y="-222" patternUnits="userSpaceOnUse"><use xlink:href="#p"/></pattern><circle id="Q" cx="56" cy="20" r="5"/><pattern id="R" width="258" height="258" x="-207" y="-243" patternUnits="userSpaceOnUse"><use xlink:href="#q"/></pattern><circle id="S" cx="73" cy="20" r="5"/><pattern id="T" width="258" height="258" x="-190" y="-243" patternUnits="userSpaceOnUse"><use xlink:href="#r"/></pattern><rect id="U" x="130.739" y="18.87" width="5.391" height="24.261" rx="2.696"/><pattern id="V" width="258" height="258" x="-127.261" y="-239.13" patternUnits="userSpaceOnUse"><use xlink:href="#s"/></pattern><rect id="W" x="119.957" y="18.87" width="5.391" height="24.261" rx="2.696"/><pattern id="X" width="258" height="258" x="-138.043" y="-239.13" patternUnits="userSpaceOnUse"><use xlink:href="#t"/></pattern><rect id="Y" x="109.174" y="18.87" width="5.391" height="24.261" rx="2.696"/><pattern id="Z" width="258" height="258" x="-148.826" y="-239.13" patternUnits="userSpaceOnUse"><use xlink:href="#u"/></pattern><rect id="aa" width="192" height="62" rx="6"/><pattern id="ab" width="258" height="258" x="-258" y="-258" patternUnits="userSpaceOnUse"><use xlink:href="#v"/></pattern><path d="M9 5h174a4 4 0 0 1 4 4v44a4 4 0 0 1-4 4H9a4 4 0 0 1-4-4V9a4 4 0 0 1 4-4z" id="ac"/><pattern id="ad" width="258" height="258" x="-253" y="-253" patternUnits="userSpaceOnUse"><use xlink:href="#w"/></pattern><circle id="ae" cx="163" cy="31" r="12"/><pattern id="af" width="258" height="258" x="-107" y="-239" patternUnits="userSpaceOnUse"><use xlink:href="#x"/></pattern><circle id="ag" cx="163" cy="31" r="9"/><pattern id="ah" width="258" height="258" x="-104" y="-236" patternUnits="userSpaceOnUse"><use xlink:href="#y"/></pattern><circle id="ai" cx="39" cy="20" r="5"/><pattern id="aj" width="258" height="258" x="-224" y="-243" patternUnits="userSpaceOnUse"><use xlink:href="#z"/></pattern><path d="M26 36h58a6 6 0 0 1 6 6v20H20V42a6 6 0 0 1 6-6z" id="ak"/><pattern id="al" width="258" height="258" x="-238" y="-222" patternUnits="userSpaceOnUse"><use xlink:href="#A"/></pattern><circle id="am" cx="56" cy="20" r="5"/><pattern id="an" width="258" height="258" x="-207" y="-243" patternUnits="userSpaceOnUse"><use xlink:href="#B"/></pattern><circle id="ao" cx="73" cy="20" r="5"/><pattern id="ap" width="258" height="258" x="-190" y="-243" patternUnits="userSpaceOnUse"><use xlink:href="#C"/></pattern><rect id="aq" x="130.739" y="18.87" width="5.391" height="24.261" rx="2.696"/><pattern id="ar" width="258" height="258" x="-127.261" y="-239.13" patternUnits="userSpaceOnUse"><use xlink:href="#D"/></pattern><rect id="as" x="119.957" y="18.87" width="5.391" height="24.261" rx="2.696"/><pattern id="at" width="258" height="258" x="-138.043" y="-239.13" patternUnits="userSpaceOnUse"><use xlink:href="#E"/></pattern><rect id="au" x="109.174" y="18.87" width="5.391" height="24.261" rx="2.696"/><pattern id="av" width="258" height="258" x="-148.826" y="-239.13" patternUnits="userSpaceOnUse"><use xlink:href="#F"/></pattern><rect id="aw" width="192" height="62" rx="6"/><pattern id="ax" width="258" height="258" x="-258" y="-258" patternUnits="userSpaceOnUse"><use xlink:href="#G"/></pattern><path d="M9 5h174a4 4 0 0 1 4 4v44a4 4 0 0 1-4 4H9a4 4 0 0 1-4-4V9a4 4 0 0 1 4-4z" id="ay"/><pattern id="az" width="258" height="258" x="-253" y="-253" patternUnits="userSpaceOnUse"><use xlink:href="#H"/></pattern><circle id="aA" cx="163" cy="31" r="12"/><pattern id="aB" width="258" height="258" x="-107" y="-239" patternUnits="userSpaceOnUse"><use xlink:href="#I"/></pattern><circle id="aC" cx="163" cy="31" r="9"/><pattern id="aD" width="258" height="258" x="-104" y="-236" patternUnits="userSpaceOnUse"><use xlink:href="#J"/></pattern><circle id="aE" cx="39" cy="20" r="5"/><pattern id="aF" width="258" height="258" x="-224" y="-243" patternUnits="userSpaceOnUse"><use xlink:href="#K"/></pattern><path d="M26 36h58a6 6 0 0 1 6 6v20H20V42a6 6 0 0 1 6-6z" id="aG"/><pattern id="aH" width="258" height="258" x="-238" y="-222" patternUnits="userSpaceOnUse"><use xlink:href="#L"/></pattern><circle id="aI" cx="56" cy="20" r="5"/><pattern id="aJ" width="258" height="258" x="-207" y="-243" patternUnits="userSpaceOnUse"><use xlink:href="#M"/></pattern><circle id="aK" cx="73" cy="20" r="5"/><pattern id="aL" width="258" height="258" x="-190" y="-243" patternUnits="userSpaceOnUse"><use xlink:href="#N"/></pattern><rect id="aM" x="130.739" y="18.87" width="5.391" height="24.261" rx="2.696"/><pattern id="aN" width="258" height="258" x="-127.261" y="-239.13" patternUnits="userSpaceOnUse"><use xlink:href="#O"/></pattern><rect id="aO" x="119.957" y="18.87" width="5.391" height="24.261" rx="2.696"/><pattern id="aP" width="258" height="258" x="-138.043" y="-239.13" patternUnits="userSpaceOnUse"><use xlink:href="#P"/></pattern><rect id="aQ" x="109.174" y="18.87" width="5.391" height="24.261" rx="2.696"/><pattern id="aR" width="258" height="258" x="-148.826" y="-239.13" patternUnits="userSpaceOnUse"><use xlink:href="#Q"/></pattern></defs><g fill="none" fill-rule="evenodd"><g transform="translate(293 79)"><use fill="url(#a)" xlink:href="#b"/><use fill-opacity=".12" fill="url(#c)" style="mix-blend-mode:overlay" xlink:href="#b"/></g><g transform="translate(293 79)"><use fill="url(#d)" xlink:href="#e"/><use fill-opacity=".12" fill="url(#f)" style="mix-blend-mode:overlay" xlink:href="#e"/></g><g transform="translate(293 79)"><use fill="url(#g)" xlink:href="#h"/><use fill-opacity=".05" fill="url(#i)" style="mix-blend-mode:overlay" xlink:href="#h"/></g><g transform="translate(293 79)"><use fill="url(#j)" xlink:href="#k"/><use fill-opacity=".05" fill="url(#l)" style="mix-blend-mode:overlay" xlink:href="#k"/></g><g transform="translate(293 79)"><use fill="#9395A3" xlink:href="#m"/><use fill-opacity=".05" fill="url(#n)" style="mix-blend-mode:overlay" xlink:href="#m"/></g><g transform="translate(293 79)"><use fill="#9395A3" xlink:href="#o"/><use fill-opacity=".05" fill="url(#p)" style="mix-blend-mode:overlay" xlink:href="#o"/></g><path d="M251 163.107l-24-31.286V115c0-6.627 5.373-12 12-12s12 5.373 12 12v48.107zM203 135h24v15.5c0 6.627-5.373 12-12 12s-12-5.373-12-12V135zm-47.246-16L203 145.11V131c0-6.627-5.373-12-12-12h-35.246z" stroke="#2C3148" stroke-width="4"/><g transform="translate(148 101)"><use fill="#9395A3" xlink:href="#q"/><use fill-opacity=".05" fill="url(#r)" style="mix-blend-mode:overlay" xlink:href="#q"/></g><g transform="translate(148 101)"><use fill="#9395A3" xlink:href="#s"/><use fill-opacity=".05" fill="url(#t)" style="mix-blend-mode:overlay" xlink:href="#s"/></g><g transform="translate(148 101)"><use fill="url(#d)" xlink:href="#u"/><use fill-opacity=".12" fill="url(#v)" style="mix-blend-mode:overlay" xlink:href="#u"/></g><g transform="translate(148 101)"><use fill="url(#d)" xlink:href="#w"/><use fill-opacity=".12" fill="url(#x)" style="mix-blend-mode:overlay" xlink:href="#w"/></g><g transform="translate(0 39)"><use fill="url(#y)" xlink:href="#z"/><use fill-opacity=".12" fill="url(#A)" style="mix-blend-mode:overlay" xlink:href="#z"/></g><g transform="translate(0 39)"><use fill="url(#B)" xlink:href="#C"/><use fill-opacity=".12" fill="url(#D)" style="mix-blend-mode:overlay" xlink:href="#C"/></g><g transform="translate(0 39)"><use fill="url(#E)" xlink:href="#F"/><use fill-opacity=".064" fill="url(#G)" xlink:href="#F"/></g><g transform="matrix(1 0 0 -1 0 101)"><use fill="url(#H)" xlink:href="#I"/><use fill-opacity=".064" fill="url(#J)" xlink:href="#I"/></g><g transform="translate(0 39)"><use fill="url(#K)" xlink:href="#L"/><use fill-opacity=".064" fill="url(#M)" xlink:href="#L"/></g><g transform="translate(0 39)"><use fill="url(#N)" xlink:href="#O"/><use fill-opacity=".12" fill="url(#P)" style="mix-blend-mode:overlay" xlink:href="#O"/></g><g transform="translate(0 39)"><use fill="#C1C4E0" xlink:href="#Q"/><use fill-opacity=".064" fill="url(#R)" xlink:href="#Q"/></g><g transform="translate(0 39)"><use fill="#C1C4E0" xlink:href="#S"/><use fill-opacity=".064" fill="url(#T)" xlink:href="#S"/></g><g transform="translate(0 39)"><use fill="#141946" xlink:href="#U"/><use fill-opacity=".2" fill="url(#V)" style="mix-blend-mode:overlay" xlink:href="#U"/></g><g transform="translate(0 39)"><use fill="#141946" xlink:href="#W"/><use fill-opacity=".2" fill="url(#X)" style="mix-blend-mode:overlay" xlink:href="#W"/></g><g transform="translate(0 39)"><use fill="#141946" xlink:href="#Y"/><use fill-opacity=".2" fill="url(#Z)" style="mix-blend-mode:overlay" xlink:href="#Y"/></g><path fill="#0B0E38" d="M20 101h150v5H20zm0 67h150v5H20z"/><g transform="translate(0 106)"><use fill="url(#y)" xlink:href="#aa"/><use fill-opacity=".12" fill="url(#ab)" style="mix-blend-mode:overlay" xlink:href="#aa"/></g><g transform="translate(0 106)"><use fill="url(#B)" xlink:href="#ac"/><use fill-opacity=".12" fill="url(#ad)" style="mix-blend-mode:overlay" xlink:href="#ac"/></g><g transform="translate(0 106)"><use fill="url(#E)" xlink:href="#ae"/><use fill-opacity=".064" fill="url(#af)" xlink:href="#ae"/></g><g transform="matrix(1 0 0 -1 0 168)"><use fill="url(#H)" xlink:href="#ag"/><use fill-opacity=".064" fill="url(#ah)" xlink:href="#ag"/></g><g transform="translate(0 106)"><use fill="url(#K)" xlink:href="#ai"/><use fill-opacity=".064" fill="url(#aj)" xlink:href="#ai"/></g><g transform="translate(0 106)"><use fill="url(#N)" xlink:href="#ak"/><use fill-opacity=".12" fill="url(#al)" style="mix-blend-mode:overlay" xlink:href="#ak"/></g><g transform="translate(0 106)"><use fill="#C1C4E0" xlink:href="#am"/><use fill-opacity=".064" fill="url(#an)" xlink:href="#am"/></g><g transform="translate(0 106)"><use fill="#C1C4E0" xlink:href="#ao"/><use fill-opacity=".064" fill="url(#ap)" xlink:href="#ao"/></g><g transform="translate(0 106)"><use fill="#141946" xlink:href="#aq"/><use fill-opacity=".2" fill="url(#ar)" style="mix-blend-mode:overlay" xlink:href="#aq"/></g><g transform="translate(0 106)"><use fill="#141946" xlink:href="#as"/><use fill-opacity=".2" fill="url(#at)" style="mix-blend-mode:overlay" xlink:href="#as"/></g><g transform="translate(0 106)"><use fill="#141946" xlink:href="#au"/><use fill-opacity=".2" fill="url(#av)" style="mix-blend-mode:overlay" xlink:href="#au"/></g><g transform="translate(0 173)"><use fill="url(#y)" xlink:href="#aw"/><use fill-opacity=".12" fill="url(#ax)" style="mix-blend-mode:overlay" xlink:href="#aw"/></g><g transform="translate(0 173)"><use fill="url(#B)" xlink:href="#ay"/><use fill-opacity=".12" fill="url(#az)" style="mix-blend-mode:overlay" xlink:href="#ay"/></g><g transform="translate(0 173)"><use fill="url(#E)" xlink:href="#aA"/><use fill-opacity=".064" fill="url(#aB)" xlink:href="#aA"/></g><g transform="matrix(1 0 0 -1 0 235)"><use fill="url(#H)" xlink:href="#aC"/><use fill-opacity=".064" fill="url(#aD)" xlink:href="#aC"/></g><g transform="translate(0 173)"><use fill="url(#K)" xlink:href="#aE"/><use fill-opacity=".064" fill="url(#aF)" xlink:href="#aE"/></g><g transform="translate(0 173)"><use fill="url(#N)" xlink:href="#aG"/><use fill-opacity=".12" fill="url(#aH)" style="mix-blend-mode:overlay" xlink:href="#aG"/></g><g transform="translate(0 173)"><use fill="#C1C4E0" xlink:href="#aI"/><use fill-opacity=".064" fill="url(#aJ)" xlink:href="#aI"/></g><g transform="translate(0 173)"><use fill="#C1C4E0" xlink:href="#aK"/><use fill-opacity=".064" fill="url(#aL)" xlink:href="#aK"/></g><g transform="translate(0 173)"><use fill="#141946" xlink:href="#aM"/><use fill-opacity=".2" fill="url(#aN)" style="mix-blend-mode:overlay" xlink:href="#aM"/></g><g transform="translate(0 173)"><use fill="#141946" xlink:href="#aO"/><use fill-opacity=".2" fill="url(#aP)" style="mix-blend-mode:overlay" xlink:href="#aO"/></g><g transform="translate(0 173)"><use fill="#141946" xlink:href="#aQ"/><use fill-opacity=".2" fill="url(#aR)" style="mix-blend-mode:overlay" xlink:href="#aQ"/></g><path d="M207.332 31.104l4.404 4.546a.498.498 0 0 1-.037.73l-10.007 8.4 17.517-6.173-4.398-4.54a.501.501 0 0 1 .011-.709l8.269-7.961-15.759 5.707zm-45.265-7.112l5.53-3.077a.498.498 0 0 1 .696.225l5.524 11.84-1.43-18.518-5.523 3.073a.501.501 0 0 1-.681-.195l-5.55-10.047 1.434 16.7zm25.035-8.155l6.326.21a.498.498 0 0 1 .48.551l-1.363 12.995 8.312-16.61-6.317-.21a.501.501 0 0 1-.484-.518l.417-11.47-7.371 15.052z" fill="#F8C71C"/></g></svg>