<svg width="231" height="245" xmlns="http://www.w3.org/2000/svg" xmlns:xlink="http://www.w3.org/1999/xlink"><defs><linearGradient x1="0%" y1="100.183%" x2="101.5%" y2="-2.049%" id="a"><stop stop-color="#BABDC8" offset="0%"/><stop stop-color="#E6E8F2" offset="100%"/></linearGradient><rect id="b" width="231" height="186" rx="6"/><pattern id="c" width="258" height="258" x="-258" y="-258" patternUnits="userSpaceOnUse"><use xlink:href="#a"/></pattern><linearGradient x1="-1.986%" y1="100%" x2="101.442%" y2="0%" id="d"><stop stop-color="#BABDC8" offset="0%"/><stop stop-color="#E6E8F2" offset="100%"/></linearGradient><path d="M16.5 186h198v24a6 6 0 0 1-6 6h-186a6 6 0 0 1-6-6v-24z" id="e"/><pattern id="f" width="258" height="258" x="-241.5" y="-72" patternUnits="userSpaceOnUse"><use xlink:href="#b"/></pattern><path id="g" d="M16.5 186h198v7.5h-198z"/><pattern id="h" width="258" height="258" x="-241.5" y="-72" patternUnits="userSpaceOnUse"><use xlink:href="#c"/></pattern><path d="M51 226.5h129v14a4 4 0 0 1-4 4H55a4 4 0 0 1-4-4v-14z" id="i"/><pattern id="j" width="258" height="258" x="-207" y="-31.5" patternUnits="userSpaceOnUse"><use xlink:href="#d"/></pattern><rect id="k" x="76.5" y="216" width="78" height="10.5" rx="5.25"/><pattern id="l" width="258" height="258" x="-181.5" y="-42" patternUnits="userSpaceOnUse"><use xlink:href="#e"/></pattern><linearGradient x1="50%" y1="3.759%" x2="50%" y2="95.522%" id="m"><stop stop-color="#A9AABF" offset="0%"/><stop stop-color="#E7E7E7" offset="100%"/></linearGradient><rect id="n" x="16.5" y="16.5" width="198" height="153" rx="4"/><pattern id="o" width="258" height="258" x="-241.5" y="-241.5" patternUnits="userSpaceOnUse"><use xlink:href="#f"/></pattern><radialGradient cx="74.631%" cy="34.99%" fx="74.631%" fy="34.99%" r="79.796%" gradientTransform="scale(-.75806 -1) rotate(39.032 .868 -2.442)" id="p"><stop stop-color="#0036F7" offset="0%"/><stop stop-color="#0714AE" offset="100%"/></radialGradient><rect id="q" x="22.5" y="22.5" width="186" height="141" rx="2"/><pattern id="r" width="258" height="258" x="-235.5" y="-235.5" patternUnits="userSpaceOnUse"><use xlink:href="#g"/></pattern></defs><g fill="none" fill-rule="evenodd"><use fill="url(#a)" xlink:href="#b"/><use fill-opacity=".12" fill="url(#c)" style="mix-blend-mode:overlay" xlink:href="#b"/><use fill="url(#d)" xlink:href="#e"/><use fill-opacity=".08" fill="url(#f)" style="mix-blend-mode:overlay" xlink:href="#e"/><use fill="#9395A3" xlink:href="#g"/><use fill-opacity=".05" fill="url(#h)" style="mix-blend-mode:overlay" xlink:href="#g"/><g transform="matrix(1 0 0 -1 0 471)"><use fill="#D1D4DE" xlink:href="#i"/><use fill-opacity=".12" fill="url(#j)" style="mix-blend-mode:overlay" xlink:href="#i"/></g><use fill="#9395A3" xlink:href="#k"/><use fill-opacity=".05" fill="url(#l)" style="mix-blend-mode:overlay" xlink:href="#k"/><use fill="url(#m)" xlink:href="#n"/><use fill-opacity=".05" fill="url(#o)" style="mix-blend-mode:overlay" xlink:href="#n"/><use fill="url(#p)" xlink:href="#q"/><use fill-opacity=".064" fill="url(#r)" xlink:href="#q"/><circle fill="#DF4842" cx="204" cy="205.5" r="3"/><path d="M145.5 52.5h-3v-3h6v3h-3zm-4.5 12h3v3h3v24h-18v-18h6v12h6v-15h-3v-9h3v3zm18 15h6v6h-6v6h-6v-24h18v12h-6v-6h-6v6zm-46.5 0h6v6h-6v6h-6v-24h18v12h-6v-6h-6v6zm-22.5 0h6v6h-6v6h-6v-24h18v12h-6v-6h-6v6zm28.5 36v-12h-6v-6h12v24h-18v-18h6v12h6zm-51-33v3h12v6h-18v-24h18v6h-12v3h6v6h-6zM141 111v-7.5h6v18h-6V117h-6v-6h6zm-45 0v-7.5h6v18h-6V117h-6v-6h6zM84 97.5h6V111h-6V97.5zm45 0h6V111h-6V97.5zm-33-12h6v6h-6v-6zm22.5 0h6v6h-6v-6zm46.5 0h6v6h-6v-6zm-30-33h3v3h-3v-3zm-3 15h3v3h-3v-3z" fill="#FFF" style="mix-blend-mode:overlay"/><path d="M145.5 52.5h-3v-3h6v3h-3zm-4.5 12h3v3h3v24h-18v-18h6v12h6v-15h-3v-9h3v3zm18 15h6v6h-6v6h-6v-24h18v12h-6v-6h-6v6zm-46.5 0h6v6h-6v6h-6v-24h18v12h-6v-6h-6v6zm-22.5 0h6v6h-6v6h-6v-24h18v12h-6v-6h-6v6zm28.5 36v-12h-6v-6h12v24h-18v-18h6v12h6zm-51-33v3h12v6h-18v-24h18v6h-12v3h6v6h-6zM141 111v-7.5h6v18h-6V117h-6v-6h6zm-45 0v-7.5h6v18h-6V117h-6v-6h6zM84 97.5h6V111h-6V97.5zm45 0h6V111h-6V97.5zm-33-12h6v6h-6v-6zm22.5 0h6v6h-6v-6zm46.5 0h6v6h-6v-6zm-30-33h3v3h-3v-3zm-3 15h3v3h-3v-3z" fill="#FFF" style="mix-blend-mode:overlay"/></g></svg>