<?xml version="1.0" encoding="UTF-8"?>
<svg width="173px" height="30px" viewBox="0 0 173 30" version="1.1" xmlns="http://www.w3.org/2000/svg" xmlns:xlink="http://www.w3.org/1999/xlink">
    <!-- Generator: Sketch 48.1 (47250) - http://www.bohemiancoding.com/sketch -->
    <title>Group</title>
    <desc>Created with Sketch.</desc>
    <defs>
        <linearGradient x1="-39.329%" y1="59.0756535%" x2="225.472%" y2="32.4451726%" id="linearGradient-1">
            <stop stop-color="#00FFC8" offset="0%"></stop>
            <stop stop-color="#0072FF" offset="100%"></stop>
        </linearGradient>
        <linearGradient x1="100%" y1="31.838%" x2="-101.04%" y2="111.264%" id="linearGradient-2">
            <stop stop-color="#00FFFF" offset="0%"></stop>
            <stop stop-color="#0000FF" offset="100%"></stop>
        </linearGradient>
        <linearGradient x1="100%" y1="43.4449794%" x2="-101.04%" y2="72.1113743%" id="linearGradient-3">
            <stop stop-color="#00FFFF" offset="0%"></stop>
            <stop stop-color="#0000FF" offset="100%"></stop>
        </linearGradient>
        <path d="M14.109,24.094 L22.467,1.614 L16.445,1.614 L11.37,16.148 L6.298,1.613 L0.02,1.613 L8.378,24.094 L14.108,24.094 L14.109,24.094 Z M29.986,7.618 L24.256,7.618 L24.256,24.094 L29.986,24.094 L29.986,7.618 Z M30.388,3.151 C30.388,1.247 28.891,0.039 27.139,0.039 C25.387,0.039 23.891,1.247 23.891,3.151 C23.891,5.019 25.387,6.227 27.139,6.227 C28.891,6.227 30.388,5.019 30.388,3.151 Z M42.98,18.346 L48.272,18.346 C47.688,22.154 44.842,24.461 40.571,24.461 C35.534,24.461 32.213,20.982 32.213,15.856 C32.213,10.766 35.717,7.252 40.461,7.252 C45.498,7.252 48.345,10.62 48.345,15.527 L48.345,16.955 L37.724,16.955 C37.907,18.932 38.929,19.994 40.571,19.994 C41.739,19.994 42.651,19.481 42.98,18.346 Z M40.46,11.72 C39.11,11.72 38.198,12.562 37.833,14.1 L42.796,14.1 C42.723,12.745 41.884,11.72 40.46,11.72 Z M63.674,7.62 L60.024,7.62 L57.542,16.553 L54.951,7.619 L49.257,7.619 L54.549,24.095 L59.404,24.095 L61.74,15.747 L64.076,24.095 L68.93,24.095 L74.223,7.619 L68.748,7.619 L66.12,16.553 L63.674,7.619 L63.674,7.62 Z M81.742,0.294 L76.012,0.294 L76.012,24.094 L81.742,24.094 L81.742,0.294 Z M92.948,29.915 L101.416,7.617 L95.722,7.617 L92.656,16.99 L89.516,7.617 L83.567,7.617 L89.7,23.692 L87.291,29.916 L92.949,29.916 L92.948,29.915 Z" id="path-4"></path>
        <linearGradient x1="50.8570794%" y1="8.144%" x2="45.8598473%" y2="178.552%" id="linearGradient-6">
            <stop stop-color="#00FFFF" offset="0%"></stop>
            <stop stop-color="#0000FF" offset="100%"></stop>
        </linearGradient>
        <linearGradient x1="100%" y1="0%" x2="6.02955962%" y2="100%" id="linearGradient-7">
            <stop stop-color="#00AFE7" offset="0%"></stop>
            <stop stop-color="#00EFCE" offset="100%"></stop>
        </linearGradient>
    </defs>
    <g id="Page-1" stroke="none" stroke-width="1" fill="none" fill-rule="evenodd">
        <g id="Group" transform="translate(-1.000000, 0.000000)">
            <g id="logo-d10c79e551">
                <g id="Rectangle-551-Copy-42-+-Rectangle-551-Copy-41" transform="translate(0.000000, 1.204000)" fill-rule="nonzero">
                    <polygon id="Rectangle-551-Copy-42" fill="url(#linearGradient-1)" points="16.936 7.46 22.218 0.023 32.782 0.023 32.782 11.23 17.042 26.402 16.936 26.402"></polygon>
                    <g id="Rectangle-551-Copy-41" transform="translate(8.972000, 13.500000) scale(-1, 1) translate(-8.972000, -13.500000) translate(0.972000, 0.000000)">
                        <g id="path-3-link" fill="#000000">
                            <polygon id="path-3" points="0.008 7.46 5.291 0.023 15.855 0.023 15.855 11.23 0.114 26.401 0.008 26.401"></polygon>
                        </g>
                        <g id="path-3-link" fill="url(#linearGradient-3)">
                            <polygon id="path-3" points="0.008 7.46 5.291 0.023 15.855 0.023 15.855 11.23 0.114 26.401 0.008 26.401"></polygon>
                        </g>
                    </g>
                </g>
                <g id="Rectangle-2" transform="translate(46.508000, 0.000000)">
                    <g id="Mask" fill="#03FFFF" fill-rule="nonzero">
                        <path d="M14.109,24.094 L22.467,1.614 L16.445,1.614 L11.37,16.148 L6.298,1.613 L0.02,1.613 L8.378,24.094 L14.108,24.094 L14.109,24.094 Z M29.986,7.618 L24.256,7.618 L24.256,24.094 L29.986,24.094 L29.986,7.618 Z M30.388,3.151 C30.388,1.247 28.891,0.039 27.139,0.039 C25.387,0.039 23.891,1.247 23.891,3.151 C23.891,5.019 25.387,6.227 27.139,6.227 C28.891,6.227 30.388,5.019 30.388,3.151 Z M42.98,18.346 L48.272,18.346 C47.688,22.154 44.842,24.461 40.571,24.461 C35.534,24.461 32.213,20.982 32.213,15.856 C32.213,10.766 35.717,7.252 40.461,7.252 C45.498,7.252 48.345,10.62 48.345,15.527 L48.345,16.955 L37.724,16.955 C37.907,18.932 38.929,19.994 40.571,19.994 C41.739,19.994 42.651,19.481 42.98,18.346 Z M40.46,11.72 C39.11,11.72 38.198,12.562 37.833,14.1 L42.796,14.1 C42.723,12.745 41.884,11.72 40.46,11.72 Z M63.674,7.62 L60.024,7.62 L57.542,16.553 L54.951,7.619 L49.257,7.619 L54.549,24.095 L59.404,24.095 L61.74,15.747 L64.076,24.095 L68.93,24.095 L74.223,7.619 L68.748,7.619 L66.12,16.553 L63.674,7.619 L63.674,7.62 Z M81.742,0.294 L76.012,0.294 L76.012,24.094 L81.742,24.094 L81.742,0.294 Z M92.948,29.915 L101.416,7.617 L95.722,7.617 L92.656,16.99 L89.516,7.617 L83.567,7.617 L89.7,23.692 L87.291,29.916 L92.949,29.916 L92.948,29.915 Z" id="path-5"></path>
                    </g>
                    <g id="Clipped">
                        <g id="Rectangle-path-Clipped">
                            <mask id="mask-5" fill="white">
                                <use xlink:href="#path-4"></use>
                            </mask>
                            <g id="path-4"></g>
                            <polygon id="Rectangle-path" fill="url(#linearGradient-6)" fill-rule="nonzero" mask="url(#mask-5)" points="-3.414 -0.591 102.317 -0.591 102.317 36.968 -3.414 36.968"></polygon>
                        </g>
                    </g>
                </g>
            </g>
            <path d="M159.232,15.744 C159.232,16.277336 159.311999,16.773331 159.472,17.232 C159.632001,17.690669 159.866665,18.090665 160.176,18.432 C160.485335,18.773335 160.847998,19.039999 161.264,19.232 C161.680002,19.424001 162.143997,19.52 162.656,19.52 C162.976002,19.52 163.317332,19.4400008 163.68,19.28 C164.042668,19.1199992 164.394665,18.8800016 164.736,18.56 C165.077335,18.2399984 165.381332,17.850669 165.648,17.392 C165.914668,16.933331 166.111999,16.4053363 166.24,15.808 C166.111999,15.2106637 165.914668,14.6773357 165.648,14.208 C165.381332,13.7386643 165.077335,13.3440016 164.736,13.024 C164.394665,12.7039984 164.042668,12.4640008 163.68,12.304 C163.317332,12.1439992 162.976002,12.064 162.656,12.064 C162.165331,12.064 161.706669,12.159999 161.28,12.352 C160.853331,12.544001 160.490668,12.810665 160.192,13.152 C159.893332,13.493335 159.658668,13.8826645 159.488,14.32 C159.317332,14.7573355 159.232,15.2319974 159.232,15.744 Z M167.232,21.888 C166.805331,22.4426694 166.362669,22.890665 165.904,23.232 C165.445331,23.573335 164.981336,23.839999 164.512,24.032 C164.042664,24.224001 163.562669,24.3519997 163.072,24.416 C162.581331,24.4800003 162.101336,24.512 161.632,24.512 C160.437327,24.512 159.338672,24.2880022 158.336,23.84 C157.333328,23.3919978 156.45867,22.7733373 155.712,21.984 C154.96533,21.1946627 154.384002,20.266672 153.968,19.2 C153.551998,18.133328 153.344,16.9813395 153.344,15.744 C153.344,14.5706608 153.551998,13.4560053 153.968,12.4 C154.384002,11.3439947 154.954663,10.4213373 155.68,9.632 C156.405337,8.84266272 157.269328,8.21866896 158.272,7.76 C159.274672,7.30133104 160.373327,7.072 161.568,7.072 C162.080003,7.072 162.581331,7.10399968 163.072,7.168 C163.562669,7.23200032 164.047998,7.35999904 164.528,7.552 C165.008002,7.74400096 165.471998,8.01066496 165.92,8.352 C166.368002,8.69333504 166.805331,9.14133056 167.232,9.696 L167.776,7.584 L173.312,7.584 L170.88,15.808 L173.312,24 L167.776,24 L167.232,21.888 Z" id="α" fill="url(#linearGradient-7)"></path>
        </g>
    </g>
</svg>