<?xml version="1.0" encoding="UTF-8"?>
<svg width="26px" height="28px" viewBox="0 0 26 28" version="1.1" xmlns="http://www.w3.org/2000/svg" xmlns:xlink="http://www.w3.org/1999/xlink">
    <!-- Generator: Sketch 51.3 (57544) - http://www.bohemiancoding.com/sketch -->
    <title>discord_logo</title>
    <desc>Created with Sketch.</desc>
    <defs></defs>
    <g id="Page-1" stroke="none" stroke-width="1" fill="none" fill-rule="evenodd">
        <g id="Viewly---Learn-More" transform="translate(-566.000000, -167.000000)" fill-rule="nonzero">
            <g id="discord_logo" transform="translate(566.000000, 167.000000)">
                <path d="M26,28 L19.6756757,23.0993 L20.3783784,25.2 L3.51351351,25.2 C1.57335135,25.2 0,23.6334 0,21.7 L0,3.5 C0,1.5666 1.57335135,0 3.51351351,0 L22.4864865,0 C24.4273514,0 26,1.5666 26,3.5 L26,28 Z" id="Shape" fill="#7289DA"></path>
                <path d="M19.5448,7.61777778 C19.5448,7.61777778 17.6728,6.16611111 15.4552,6 L15.2608,6.39722222 C17.2624,6.88111111 18.1768,7.58166667 19.1344,8.44111111 C17.4856,7.59611111 15.8512,6.72222222 13,6.72222222 C10.1488,6.72222222 8.5144,7.59611111 6.8656,8.44111111 C7.8232,7.58166667 8.9176,6.80166667 10.7392,6.39722222 L10.5448,6 C8.2192,6.22388889 6.4552,7.61777778 6.4552,7.61777778 C6.4552,7.61777778 4.36,10.6438889 4,16.5588889 C6.1168,18.9855556 9.3208,19 9.3208,19 L9.9832,18.1116667 C8.8528,17.7216667 7.564,17.0211111 6.4552,15.75 C7.78,16.7466667 9.7744,17.5555556 13,17.5555556 C16.2256,17.5555556 18.22,16.7466667 19.5448,15.75 C18.436,17.0211111 17.1472,17.7216667 16.0168,18.1116667 L16.6792,19 C16.6792,19 19.8832,18.9855556 22,16.5588889 C21.64,10.6438889 19.5448,7.61777778 19.5448,7.61777778 Z M10.48,15.3888889 C9.688,15.3888889 9.04,14.58 9.04,13.5833333 C9.04,12.5866667 9.688,11.7777778 10.48,11.7777778 C11.272,11.7777778 11.92,12.5866667 11.92,13.5833333 C11.92,14.58 11.272,15.3888889 10.48,15.3888889 Z M15.52,15.3888889 C14.728,15.3888889 14.08,14.58 14.08,13.5833333 C14.08,12.5866667 14.728,11.7777778 15.52,11.7777778 C16.312,11.7777778 16.96,12.5866667 16.96,13.5833333 C16.96,14.58 16.312,15.3888889 15.52,15.3888889 Z" id="Shape" fill="#FFFFFF"></path>
            </g>
        </g>
    </g>
</svg>