<?xml version="1.0" encoding="UTF-8"?>
<svg width="25px" height="20px" viewBox="0 0 25 20" version="1.1" xmlns="http://www.w3.org/2000/svg" xmlns:xlink="http://www.w3.org/1999/xlink">
    <!-- Generator: Sketch 51.3 (57544) - http://www.bohemiancoding.com/sketch -->
    <title>medium_logo</title>
    <desc>Created with Sketch.</desc>
    <defs></defs>
    <g id="Page-1" stroke="none" stroke-width="1" fill="none" fill-rule="evenodd">
        <g id="Viewly---Learn-More" transform="translate(-896.000000, -170.000000)" fill-rule="nonzero">
            <g id="medium_logo" transform="translate(896.000000, 170.000000)">
                <path d="M17.6642795,0.0696426757 C17.2988483,-0.110641525 17,0.0712452021 17,0.475081813 L17,16.5355997 L23.6706668,19.8311949 C24.404626,20.1997759 25,19.9433718 25,19.2703107 L25,3.80593259 C25,3.74183154 24.9612891,3.68574312 24.9039969,3.65369259 L17.6650537,0.0800590969 L17.6650537,0.0720464658 L17.6642795,0.0696426757 Z" id="Shape" fill="#32FC8D"></path>
                <path d="M8,12.1783824 L16.1051657,0.368856038 C16.3343861,0.0358005933 16.8390006,-0.0958724892 17.2265315,0.074527971 L24.9474645,3.5367555 C24.9969365,3.55999193 25.0150763,3.61421026 24.9862176,3.65293763 L16.5199062,16 L8,12.1799315 L8,12.1783824 Z" id="Shape" fill="#0BE370"></path>
                <path d="M1.65269564,0.138682861 C1.02559119,-0.173132601 0.812567161,0.0588581033 1.1803727,0.654217758 L8.7558902,12.8990031 L17,17 L8.77424058,3.7016942 C8.76227294,3.68256952 8.74551824,3.66677088 8.72637002,3.65679278 L1.65269564,0.139514369 L1.65269564,0.138682861 Z" id="Shape" fill="#14C767"></path>
                <path d="M8,18.2459176 C8,18.8862787 7.50217749,19.175966 6.89286751,18.8893281 L0.664279492,15.9619627 C0.29884835,15.7911998 0,15.3368482 0,14.9518692 L0,0.603204687 C0,0.0909157408 0.398722539,-0.140834021 0.886480209,0.0886287367 L7.95741798,3.41240821 C7.98374141,3.42384323 8,3.44900027 8,3.47644432 L8,18.2428682 L8,18.2459176 Z" id="Shape" fill="#00AB6C"></path>
            </g>
        </g>
    </g>
</svg>