<?xml version="1.0" encoding="UTF-8"?>
<svg width="388px" height="306px" viewBox="0 0 388 306" version="1.1" xmlns="http://www.w3.org/2000/svg" xmlns:xlink="http://www.w3.org/1999/xlink">
    <!-- Generator: Sketch 49.1 (51147) - http://www.bohemiancoding.com/sketch -->
    <title>Illustration</title>
    <desc>Created with Sketch.</desc>
    <defs>
        <polygon id="path-1" points="0 0.261381301 113.738619 0.261381301 113.738619 114 0 114"></polygon>
        <polygon id="path-3" points="0.497984242 0.164842105 13.9423772 0.164842105 13.9423772 26.5056622 0.497984242 26.5056622"></polygon>
        <polygon id="path-5" points="0.6666 0.589329801 163.002 0.589329801 163.002 164 0.6666 164"></polygon>
    </defs>
    <g id="Page-1" stroke="none" stroke-width="1" fill="none" fill-rule="evenodd">
        <g id="Viewly---Search-Results-Copy" transform="translate(-533.000000, -573.000000)">
            <g id="Illustration" transform="translate(533.000000, 573.000000)">
                <g id="Page-1" transform="translate(0.000000, 53.000000)">
                    <g id="Group-3" transform="translate(0.000000, 40.000000)">
                        <mask id="mask-2" fill="white">
                            <use xlink:href="#path-1"></use>
                        </mask>
                        <g id="Clip-2"></g>
                        <path d="M113.738619,57.1308308 C113.738619,88.5390666 88.277405,114.00028 56.8691692,114.00028 C25.4609334,114.00028 -0.000280255517,88.5390666 -0.000280255517,57.1308308 C-0.000280255517,25.722595 25.4609334,0.261381301 56.8691692,0.261381301 C88.277405,0.261381301 113.738619,25.722595 113.738619,57.1308308" id="Fill-1" fill="#FFFFFF" mask="url(#mask-2)"></path>
                    </g>
                    <path d="M86,98.5007179 C86,114.793166 72.7917305,128 56.4992821,128 C40.2068336,128 27,114.793166 27,98.5007179 C27,82.2082695 40.2068336,69 56.4992821,69 C72.7917305,69 86,82.2082695 86,98.5007179" id="Fill-15" fill="#1A1A1A"></path>
                    <path d="M75,85.5 C75,87.984707 72.9843825,90 70.4992755,90 C68.0141684,90 66,87.984707 66,85.5 C66,83.015293 68.0141684,81 70.4992755,81 C72.9843825,81 75,83.015293 75,85.5" id="Fill-19" fill="#FFFFFF"></path>
                    <path d="M83.1221749,23.6786765 C61.9003361,20.626534 39.6777972,24.9865345 20.4181702,36.8311788 C17.4594571,38.6465425 13.796755,38.3323723 11.9675033,35.9924438 C10.1410508,33.6624663 10.9318137,29.7488435 14.0752715,27.3534731 C34.1410568,12.0387404 59.0661856,4.06649295 84.6883055,5.08719081 C96.4265869,5.50229357 105.568647,12.7083068 103.774384,18.1344959 C102.006714,23.5692144 92.4881675,24.9410438 83.1221749,23.6786765" id="Fill-23" fill="#1A1A1A"></path>
                    <g id="Group-29" transform="translate(105.000000, 0.000000)">
                        <mask id="mask-4" fill="white">
                            <use xlink:href="#path-3"></use>
                        </mask>
                        <g id="Clip-28"></g>
                        <path d="M1.55343879,-1.8353 C1.55343879,-1.8353 15.9416206,18.4147 -0.502015758,24.4897 C20.7376812,25.1647 13.2010145,4.2397 1.55343879,-1.8353" id="Fill-27" fill="#DADADA" mask="url(#mask-4)"></path>
                    </g>
                </g>
                <g id="Page-1" transform="translate(149.000000, 0.000000)">
                    <g id="Group-6" transform="translate(0.000000, 67.000000)">
                        <mask id="mask-6" fill="white">
                            <use xlink:href="#path-5"></use>
                        </mask>
                        <g id="Clip-5"></g>
                        <path d="M163.0026,82.2948662 C163.0026,127.41974 126.6626,164.000403 81.8346,164.000403 C37.0066,164.000403 0.6666,127.41974 0.6666,82.2948662 C0.6666,37.1699921 37.0066,0.589329801 81.8346,0.589329801 C126.6626,0.589329801 163.0026,37.1699921 163.0026,82.2948662" id="Fill-4" fill="#FFFFFF" mask="url(#mask-6)"></path>
                    </g>
                    <path d="M123,149.50101 C123,172.420895 104.419327,191 81.5,191 C58.5806726,191 40,172.420895 40,149.50101 C40,126.581125 58.5806726,108 81.5,108 C104.419327,108 123,126.581125 123,149.50101" id="Fill-17" fill="#1A1A1A"></path>
                    <path d="M106,133 C106,136.312943 103.312943,139 100,139 C96.6870573,139 94,136.312943 94,133 C94,129.687057 96.6870573,127 100,127 C103.312943,127 106,129.687057 106,133" id="Fill-21" fill="#FFFFFF"></path>
                    <path d="M80.368709,22.64082 C106.152403,18.9412533 133.15539,24.2261024 156.554917,38.583247 C160.151574,40.7836879 164.600205,40.4028755 166.824521,37.5665985 C169.043734,34.7423834 168.082925,29.9985981 164.261796,27.0951189 C139.882754,8.53180649 109.597712,-1.1315237 78.4640963,0.105685835 C64.2033088,0.608840688 53.0953356,9.34340216 55.2737363,15.920601 C57.4232278,22.5081387 68.9869477,24.1709621 80.368709,22.64082" id="Fill-25" fill="#1A1A1A"></path>
                    <path d="M132,92 C132,92 147.557774,130.8568 134.880268,164 C157.929068,120.571323 152.742589,101.142092 132,92" id="Fill-32" fill="#DFF3FD" transform="translate(141.000000, 128.000000) rotate(-15.000000) translate(-141.000000, -128.000000) "></path>
                </g>
                <path d="M308.5,226.5 L374.507575,292.507575" id="Line" stroke="#DCDCDC" stroke-width="27" stroke-linecap="round" stroke-linejoin="round"></path>
                <path d="M194.380859,285.667969 C244.914914,285.667969 285.880859,244.702023 285.880859,194.167969 C285.880859,143.633914 244.914914,102.667969 194.380859,102.667969" id="Oval-3" stroke="#DCDCDC" stroke-width="27" transform="translate(240.130859, 194.167969) rotate(-270.000000) translate(-240.130859, -194.167969) "></path>
                <circle id="Oval-3-Copy" stroke="#0048FF" stroke-width="27" fill-opacity="0" fill="#DFF3FD" cx="240.5" cy="139.5" r="91.5"></circle>
                <path d="M308.5,212.5 L374.507575,278.507575" id="Line-Copy" stroke="#0048FF" stroke-width="27" stroke-linecap="round" stroke-linejoin="round"></path>
            </g>
        </g>
    </g>
</svg>