<svg width="321" height="321" viewBox="0 0 321 321" xmlns="http://www.w3.org/2000/svg" xmlns:xlink="http://www.w3.org/1999/xlink">
  <defs>
    <linearGradient x1="50%" y1="100%" x2="50%" y2="0%" id="a">
      <stop stop-color="#FFFDE0" offset="0%"/>
      <stop stop-color="#FFF9BE" offset="100%"/>
    </linearGradient>
    <path d="M144.14 320.176l-10.786-133.072 71.327-19.112 55.93 117.967C233.164 307.89 198.363 321 160.5 321c-5.523 0-10.981-.279-16.36-.824z" id="b"/>
    <pattern id="c" width="258" height="258" x="-124.646" y="-90.008" patternUnits="userSpaceOnUse">
      <use xlink:href="#a"/>
    </pattern>
    <path id="d" d="M.82.24h129.858V60.7H.82z"/>
    <linearGradient x1="82.679%" y1="10.395%" x2="39.25%" y2="40.704%" id="f">
      <stop stop-color="#E7FAFD" offset="0%"/>
      <stop stop-color="#CAF4F9" offset="100%"/>
    </linearGradient>
    <path d="M54.595 3.294C24.26 11.676 3.23 35.342.82 60.7l129.858-35.9C115.327 4.357 84.944-5.095 54.595 3.294" id="g"/>
    <pattern id="h" width="258" height="258" x="-257.18" y="-257.76" patternUnits="userSpaceOnUse">
      <use xlink:href="#b"/>
    </pattern>
    <linearGradient x1="100%" y1="14.051%" x2="33.835%" y2="62.464%" id="i">
      <stop stop-color="#009FFF" offset="0%"/>
      <stop stop-color="#0048FF" offset="100%"/>
    </linearGradient>
    <path d="M23 88c2.77-6.366 19.596-24.297 26.518-27.513l129.44-36.433c8.349-.699 32.14 5.55 39.042 9.066L23 88" id="j"/>
    <pattern id="k" width="258" height="258" x="-235" y="-234" patternUnits="userSpaceOnUse">
      <use xlink:href="#c"/>
    </pattern>
    <linearGradient x1="100%" y1="0%" x2="50%" y2="63.406%" id="l">
      <stop stop-color="#009FFF" offset="0%"/>
      <stop stop-color="#0048FF" offset="100%"/>
    </linearGradient>
    <path d="M63.014 120.96l133.99-36.904C204.7 79.9 221.997 58.682 226 51L24 107.856c6.083 4.998 31.116 13.803 39.014 13.105z" id="m"/>
    <pattern id="n" width="258" height="258" x="-234" y="-207" patternUnits="userSpaceOnUse">
      <use xlink:href="#d"/>
    </pattern>
    <path id="o" d="M.656.365H168.76V61.03H.656z"/>
    <linearGradient x1="86.011%" y1="19.44%" x2="35.76%" y2="66.429%" id="p">
      <stop stop-color="#009FFF" offset="0%"/>
      <stop stop-color="#0042E9" offset="100%"/>
    </linearGradient>
    <path d="M23 88s26.035-7.388 59-16.751C57.153 77.426 42.9 69.9 42.344 66 33.64 73.652 24.98 83.4 23 88z" id="r"/>
    <pattern id="s" width="258" height="258" x="-235" y="-192" patternUnits="userSpaceOnUse">
      <use xlink:href="#e"/>
    </pattern>
    <path id="t" d="M0 .193h243.082v82.578H0z"/>
    <path d="M242.707 7.559c1.498 5.362-1.626 10.92-6.979 12.415L12.766 82.396c-5.346 1.5-10.9-1.637-12.39-6.992-1.5-5.353 1.624-10.915 6.98-12.427L230.307.57c5.351-1.5 10.904 1.625 12.4 6.99" id="v"/>
    <pattern id="w" width="258" height="258" x="-258" y="-257.807" patternUnits="userSpaceOnUse">
      <use xlink:href="#f"/>
    </pattern>
    <path id="x" d="M.376.093h242.706V75.77H.376z"/>
    <linearGradient x1="100%" y1="0%" x2="22.25%" y2="73.16%" id="y">
      <stop stop-color="#D8DBEA" offset="0%"/>
      <stop stop-color="#AFB5D0" offset="100%"/>
    </linearGradient>
    <pattern id="A" width="258" height="258" x="-257.624" y="-257.907" patternUnits="userSpaceOnUse">
      <use xlink:href="#g"/>
    </pattern>
  </defs>
  <g fill="none" fill-rule="evenodd">
    <circle fill="#FFF" cx="160.5" cy="160.5" r="160.5"/>
    <use fill="url(#a)" xlink:href="#b"/>
    <use fill-opacity=".672" fill="url(#c)" style="mix-blend-mode:overlay" xlink:href="#b"/>
    <g transform="translate(89 77)">
      <mask id="e" fill="#fff">
        <use xlink:href="#d"/>
      </mask>
      <g mask="url(#e)">
        <use fill="url(#f)" xlink:href="#g"/>
        <use fill-opacity=".647" fill="url(#h)" style="mix-blend-mode:soft-light" xlink:href="#g"/>
      </g>
    </g>
    <path d="M144.223 82.758C115.328 90.826 95.296 113.6 93 138l15.258-4.263C110.357 111.508 127.173 90.635 152 81a80.599 80.599 0 0 0-7.777 1.758z" fill="#EDFDFF"/>
    <g transform="translate(41 77)">
      <use fill="url(#i)" xlink:href="#j"/>
      <use fill-opacity=".053" fill="url(#k)" xlink:href="#j"/>
    </g>
    <g transform="translate(41 77)">
      <use fill="url(#l)" xlink:href="#m"/>
      <use fill-opacity=".048" fill="url(#n)" xlink:href="#m"/>
    </g>
    <path d="M181.703 87.85c1.189 4.25-1.296 8.666-5.55 9.85a7.985 7.985 0 0 1-9.854-5.548 7.989 7.989 0 0 1 5.55-9.854c4.247-1.191 8.668 1.296 9.854 5.551" fill="#FFF" opacity=".9"/>
    <g transform="translate(64 138)">
      <mask id="q" fill="#fff">
        <use xlink:href="#o"/>
      </mask>
      <path d="M1 46.484c6 4.95 30.385 14.17 38.174 13.48L141 32c-15.344-8.657 5.486-22.185 25.953-32C110.279 16.021 1 46.381 1 46.484z" fill="url(#p)" mask="url(#q)"/>
    </g>
    <g transform="translate(41 77)">
      <use fill="#0012E9" xlink:href="#r"/>
      <use fill-opacity=".064" fill="url(#s)" xlink:href="#r"/>
    </g>
    <g transform="translate(41 106)">
      <mask id="u" fill="#fff">
        <use xlink:href="#t"/>
      </mask>
      <g mask="url(#u)">
        <use fill="#DBDEED" xlink:href="#v"/>
        <use fill-opacity=".038" fill="url(#w)" style="mix-blend-mode:luminosity" xlink:href="#v"/>
      </g>
    </g>
    <g transform="translate(41 114)">
      <mask id="z" fill="#fff">
        <use xlink:href="#x"/>
      </mask>
      <path d="M12.766 75.393l222.962-62.807c5.353-1.506 8.477-7.097 6.979-12.493L.376 68.358c1.49 5.388 7.044 8.544 12.39 7.035" fill="url(#y)" mask="url(#z)"/>
      <path d="M12.766 75.393l222.962-62.807c5.353-1.506 8.477-7.097 6.979-12.493L.376 68.358c1.49 5.388 7.044 8.544 12.39 7.035" fill-opacity=".05" fill="url(#A)" style="mix-blend-mode:luminosity" mask="url(#z)"/>
    </g>
    <path d="M249 205l-6 6m0-6l6 6m-13 45l-3 3m0-3l3 3m-65.844-47.72l-8.312 11.44m-1.564-9.876l11.44 8.312M213.853 235l-6.327 9.38M206 236.526l9.38 6.327M120.393 249l-2.763 8.023M115 251.63l8.023 2.763m24.023 30.307l-8.07 2.623m2.724-5.346l2.623 8.07" stroke="#FBD44B" stroke-linecap="round" stroke-linejoin="round" stroke-width="2"/>
  </g>
</svg>
